<mxfile host="app.diagrams.net" modified="2023-05-17T18:23:12.281Z" agent="Mozilla/5.0 (X11; Linux x86_64; rv:109.0) Gecko/20100101 Firefox/113.0" etag="AUSS29Ng_0ft0oaWeEwT" version="21.2.8" type="device">
  <diagram name="Page-1" id="2NXoARi9BHyl-8uNKX0d">
    <mxGraphModel dx="744" dy="774" grid="1" gridSize="10" guides="1" tooltips="1" connect="1" arrows="1" fold="1" page="1" pageScale="1" pageWidth="850" pageHeight="1100" background="none" math="0" shadow="0">
      <root>
        <mxCell id="0" />
        <mxCell id="1" parent="0" />
        <mxCell id="rftT05JgVePBAX9GacYV-1" value="" style="ellipse;html=1;shape=endState;fillColor=#000000;strokeColor=#ff0000;" vertex="1" parent="1">
          <mxGeometry x="380" y="910" width="30" height="30" as="geometry" />
        </mxCell>
        <mxCell id="rftT05JgVePBAX9GacYV-2" value="" style="ellipse;html=1;shape=startState;fillColor=#000000;strokeColor=#ff0000;" vertex="1" parent="1">
          <mxGeometry x="380" y="140" width="30" height="30" as="geometry" />
        </mxCell>
        <mxCell id="rftT05JgVePBAX9GacYV-7" value="" style="edgeStyle=orthogonalEdgeStyle;html=1;verticalAlign=bottom;endArrow=open;endSize=8;strokeColor=#ff0000;rounded=0;" edge="1" parent="1" source="rftT05JgVePBAX9GacYV-2" target="rftT05JgVePBAX9GacYV-6">
          <mxGeometry relative="1" as="geometry">
            <mxPoint x="395" y="270" as="targetPoint" />
            <mxPoint x="395" y="170" as="sourcePoint" />
          </mxGeometry>
        </mxCell>
        <mxCell id="rftT05JgVePBAX9GacYV-8" style="edgeStyle=orthogonalEdgeStyle;rounded=0;orthogonalLoop=1;jettySize=auto;html=1;entryX=0.5;entryY=0;entryDx=0;entryDy=0;" edge="1" parent="1" source="rftT05JgVePBAX9GacYV-6" target="rftT05JgVePBAX9GacYV-10">
          <mxGeometry relative="1" as="geometry">
            <mxPoint x="395" y="330" as="targetPoint" />
          </mxGeometry>
        </mxCell>
        <mxCell id="rftT05JgVePBAX9GacYV-6" value="user types into the search bar" style="rounded=1;whiteSpace=wrap;html=1;" vertex="1" parent="1">
          <mxGeometry x="332.5" y="220" width="125" height="60" as="geometry" />
        </mxCell>
        <mxCell id="rftT05JgVePBAX9GacYV-13" value="" style="edgeStyle=orthogonalEdgeStyle;rounded=0;orthogonalLoop=1;jettySize=auto;html=1;entryX=0.5;entryY=0;entryDx=0;entryDy=0;" edge="1" parent="1" source="rftT05JgVePBAX9GacYV-10" target="rftT05JgVePBAX9GacYV-12">
          <mxGeometry relative="1" as="geometry" />
        </mxCell>
        <mxCell id="rftT05JgVePBAX9GacYV-10" value="search text is compared to cached emails in the backend" style="rounded=1;whiteSpace=wrap;html=1;" vertex="1" parent="1">
          <mxGeometry x="332.5" y="310" width="125" height="60" as="geometry" />
        </mxCell>
        <mxCell id="rftT05JgVePBAX9GacYV-14" style="edgeStyle=orthogonalEdgeStyle;rounded=0;orthogonalLoop=1;jettySize=auto;html=1;entryX=0;entryY=0.5;entryDx=0;entryDy=0;exitX=0;exitY=0.5;exitDx=0;exitDy=0;" edge="1" parent="1" source="rftT05JgVePBAX9GacYV-12" target="rftT05JgVePBAX9GacYV-10">
          <mxGeometry relative="1" as="geometry">
            <Array as="points">
              <mxPoint x="260" y="450" />
              <mxPoint x="260" y="340" />
            </Array>
          </mxGeometry>
        </mxCell>
        <mxCell id="rftT05JgVePBAX9GacYV-12" value="" style="rhombus;whiteSpace=wrap;html=1;rounded=1;" vertex="1" parent="1">
          <mxGeometry x="355" y="410" width="80" height="80" as="geometry" />
        </mxCell>
        <mxCell id="rftT05JgVePBAX9GacYV-15" value="[data not like cached emails]" style="text;html=1;align=center;verticalAlign=middle;resizable=0;points=[];autosize=1;strokeColor=none;fillColor=none;" vertex="1" parent="1">
          <mxGeometry x="200" y="450" width="170" height="30" as="geometry" />
        </mxCell>
        <mxCell id="rftT05JgVePBAX9GacYV-18" value="" style="edgeStyle=orthogonalEdgeStyle;rounded=0;orthogonalLoop=1;jettySize=auto;html=1;" edge="1" parent="1" source="rftT05JgVePBAX9GacYV-12" target="rftT05JgVePBAX9GacYV-17">
          <mxGeometry relative="1" as="geometry">
            <mxPoint x="395" y="540" as="targetPoint" />
            <mxPoint x="395" y="490" as="sourcePoint" />
          </mxGeometry>
        </mxCell>
        <mxCell id="rftT05JgVePBAX9GacYV-17" value="Closest matching searches are sent to search bar" style="rounded=1;whiteSpace=wrap;html=1;" vertex="1" parent="1">
          <mxGeometry x="335" y="550" width="120" height="60" as="geometry" />
        </mxCell>
        <mxCell id="rftT05JgVePBAX9GacYV-19" value="[data like cached emails]" style="text;html=1;align=center;verticalAlign=middle;resizable=0;points=[];autosize=1;strokeColor=none;fillColor=none;" vertex="1" parent="1">
          <mxGeometry x="400" y="500" width="150" height="30" as="geometry" />
        </mxCell>
        <mxCell id="rftT05JgVePBAX9GacYV-22" value="" style="edgeStyle=orthogonalEdgeStyle;rounded=0;orthogonalLoop=1;jettySize=auto;html=1;" edge="1" parent="1" source="rftT05JgVePBAX9GacYV-17">
          <mxGeometry relative="1" as="geometry">
            <mxPoint x="395" y="680" as="targetPoint" />
            <mxPoint x="395" y="610" as="sourcePoint" />
          </mxGeometry>
        </mxCell>
        <mxCell id="rftT05JgVePBAX9GacYV-23" value="" style="endArrow=none;html=1;rounded=0;" edge="1" parent="1">
          <mxGeometry width="50" height="50" relative="1" as="geometry">
            <mxPoint x="360" y="680" as="sourcePoint" />
            <mxPoint x="430" y="680" as="targetPoint" />
          </mxGeometry>
        </mxCell>
        <mxCell id="rftT05JgVePBAX9GacYV-24" value="" style="edgeStyle=none;orthogonalLoop=1;jettySize=auto;html=1;rounded=0;entryX=0.5;entryY=0;entryDx=0;entryDy=0;" edge="1" parent="1" target="rftT05JgVePBAX9GacYV-25">
          <mxGeometry width="100" relative="1" as="geometry">
            <mxPoint x="395" y="680" as="sourcePoint" />
            <mxPoint x="300" y="770" as="targetPoint" />
            <Array as="points" />
          </mxGeometry>
        </mxCell>
        <mxCell id="rftT05JgVePBAX9GacYV-28" style="edgeStyle=orthogonalEdgeStyle;rounded=0;orthogonalLoop=1;jettySize=auto;html=1;exitX=0.5;exitY=1;exitDx=0;exitDy=0;entryX=0.5;entryY=0;entryDx=0;entryDy=0;" edge="1" parent="1" source="rftT05JgVePBAX9GacYV-25" target="rftT05JgVePBAX9GacYV-1">
          <mxGeometry relative="1" as="geometry" />
        </mxCell>
        <mxCell id="rftT05JgVePBAX9GacYV-25" value="User clicks on email in search bar" style="rounded=1;whiteSpace=wrap;html=1;" vertex="1" parent="1">
          <mxGeometry x="332.5" y="800" width="125" height="60" as="geometry" />
        </mxCell>
        <mxCell id="rftT05JgVePBAX9GacYV-26" value="" style="endArrow=classic;html=1;rounded=0;entryX=1;entryY=0.5;entryDx=0;entryDy=0;" edge="1" parent="1" target="rftT05JgVePBAX9GacYV-6">
          <mxGeometry width="50" height="50" relative="1" as="geometry">
            <mxPoint x="420" y="680" as="sourcePoint" />
            <mxPoint x="490" y="770" as="targetPoint" />
            <Array as="points">
              <mxPoint x="420" y="700" />
              <mxPoint x="420" y="760" />
              <mxPoint x="560" y="760" />
              <mxPoint x="560" y="250" />
            </Array>
          </mxGeometry>
        </mxCell>
      </root>
    </mxGraphModel>
  </diagram>
</mxfile>
